<svg width="173" height="52" viewBox="0 0 173 52" fill="none" xmlns="http://www.w3.org/2000/svg">
<path d="M20.425 17.25V31.575H29.25V36H16V17.25H20.425ZM29.2578 29.375V17.25H44.7328V22C44.7328 25.775 41.6578 28.825 37.9078 28.825H33.6828V29.375C33.6828 30.575 34.6828 31.575 35.8828 31.575H44.7328V36H35.8828C32.2328 36 29.2578 33.025 29.2578 29.375ZM33.6828 21.675V24.675H37.9078C39.2328 24.675 40.3078 23.575 40.3078 22.25V21.675H33.6828Z" fill="white"/>
<path d="M70 21.675V17.25H88.375V29.375C88.375 33.025 85.375 36 81.725 36H70V31.575H72.9V21.675H70ZM83.95 29.375V21.675H77.325V31.575H81.725C82.95 31.575 83.95 30.575 83.95 29.375ZM89.6289 21.675V17.25H100.954V27.925C100.954 34.175 95.8789 39.25 89.6289 39.25V34.825C93.4289 34.825 96.5289 31.725 96.5289 27.925V21.675H89.6289ZM102.715 21.675V17.25H111.79V21.675H109.465V31.575H111.79V36H102.715V31.575H105.04V21.675H102.715ZM135.242 17.25H137.442V36H133.017V22.075C130.617 22.975 128.892 25.3 128.892 28.025V36H124.467V28.025C124.467 25.3 122.742 22.975 120.342 22.075V36H115.917V21.675H113.042V17.25H118.117C121.617 17.25 124.717 18.925 126.692 21.5C128.642 18.925 131.742 17.25 135.242 17.25ZM139.434 21.675V17.25H156.334V21.675H146.784V24.75H154.434V28.725H146.784V31.575H156.334V36H139.434V31.575H142.359V21.675H139.434Z" fill="white"/>
<path d="M66.803 36.554C65.6223 36.1553 64.5567 35.519 63.606 34.645C62.6707 33.7863 61.8197 32.7973 61.053 31.678C60.3017 30.5587 59.6423 29.3627 59.075 28.09C58.5077 26.802 58.017 25.537 57.603 24.295C57.189 25.537 56.6983 26.802 56.131 28.09C55.5637 29.3627 54.8967 30.5587 54.13 31.678C53.3787 32.7973 52.5277 33.7863 51.577 34.645C50.6263 35.519 49.5683 36.1553 48.403 36.554L47 33.173C47.92 32.6977 48.8247 31.9847 49.714 31.034C50.0973 30.62 50.496 30.137 50.91 29.585C51.324 29.033 51.738 28.3967 52.152 27.676C52.566 26.94 52.9647 26.1197 53.348 25.215C53.7467 24.295 54.1147 23.2677 54.452 22.133H50.312V18.476H55.326C55.464 17.8167 55.579 17.1267 55.671 16.406H59.535L59.88 18.476H64.848V22.133H60.777C61.1143 23.2677 61.4747 24.295 61.858 25.215C62.2567 26.1197 62.6553 26.94 63.054 27.676C63.468 28.3967 63.882 29.033 64.296 29.585C64.71 30.137 65.1087 30.62 65.492 31.034C66.3813 31.9847 67.286 32.6977 68.206 33.173L66.803 36.554ZM55.717 33.518V29.838H59.466V33.518H55.717Z" fill="white"/>
<rect x="146" y="12" width="4" height="4" fill="white"/>
<rect x="2.5" y="2.5" width="168" height="47" rx="13.2273" stroke="#E5E5E5" stroke-opacity="0.5" stroke-width="5"/>
</svg>
